PathFileType  4	(X/Y/Z) /Users/kristensteudel/Documents/NMBL_Research/BertecForceProcessing/anc_files/
DataRate	CameraRate	NumFrames	NumMarkers	Units	OrigDataRate	OrigDataStartFrame	OrigNumFrames
  200.0		  200.0		    5		     46		 mm	  200.0	      239	    636
Frame#	Time	r_knee			r_shank_antsup			r_ankle			r_calc			r_5meta			r_toe			L_knee			L_shank_antsup			L_ankle			L_calc			L_5meta			L_toe			r_sh2			r_sh3			r_sh4			L_sh2			L_sh3			r_thigh1			r_thigh2			r_thigh3			r_thigh4			r_thigh5			L_thigh1			L_thigh2			L_thigh3			L_thigh4			r.ASIS			r.PSIS			L.ASIS			L.PSIS			C7			R_Shoulder			L_Shoulder			Sternum			R_humerus			R_elbow_med			R_elbow_lat			R_forearm			R_wrist_radius			R_wrist_ulna			L_humerus			L_elbow_med			L_elbow_lat			L_forearm			L_wrist_radius			L_wrist_ulna			
		X1	Y1	Z1	X2	Y2	Z2	X3	Y3	Z3	X4	Y4	Z4	X5	Y5	Z5	X6	Y6	Z6	X7	Y7	Z7	X8	Y8	Z8	X9	Y9	Z9	X10	Y10	Z10	X11	Y11	Z11	X12	Y12	Z12	X13	Y13	Z13	X14	Y14	Z14	X15	Y15	Z15	X16	Y16	Z16	X17	Y17	Z17	X18	Y18	Z18	X19	Y19	Z19	X20	Y20	Z20	X21	Y21	Z21	X22	Y22	Z22	X23	Y23	Z23	X24	Y24	Z24	X25	Y25	Z25	X26	Y26	Z26	X27	Y27	Z27	X28	Y28	Z28	X29	Y29	Z29	X30	Y30	Z30	X31	Y31	Z31	X32	Y32	Z32	X33	Y33	Z33	X34	Y34	Z34	X35	Y35	Z35	X36	Y36	Z36	X37	Y37	Z37	X38	Y38	Z38	X39	Y39	Z39	X40	Y40	Z40	X41	Y41	Z41	X42	Y42	Z42	X43	Y43	Z43	X44	Y44	Z44	X45	Y45	Z45	X46	Y46	Z46	

239	1.19000	1041.344	529.400	-172.496	937.308	497.548	-179.469	642.405	633.309	-192.861	637.185	719.855	-246.917	528.152	552.513	-167.231	533.558	509.666	-233.031	900.324	483.551	-456.237	892.230	360.883	-439.491	725.940	105.598	-351.759	665.039	81.718	-299.639	857.647	40.403	-389.673	901.950	49.964	-326.044	822.539	532.200	-186.458	952.009	561.605	-141.700	846.004	605.548	-157.656	809.005	394.395	-460.466	769.772	284.397	-420.685	1042.922	756.863	-166.674	1085.334	651.212	-181.263	1066.750	606.982	-149.608	955.456	711.514	-109.792	999.990	605.897	-139.648	925.888	715.530	-502.443	946.237	583.104	-461.124	806.323	702.129	-499.300	833.118	571.525	-457.857	929.026	969.890	-198.484	713.929	1028.972	-225.613	870.319	994.475	-459.654	689.744	1039.102	-328.358	825.981	1517.231	-335.340	879.605	1487.869	-131.936	880.503	1452.161	-530.890	973.625	1398.470	-331.243	764.750	1301.876	-46.378	617.588	1235.064	-83.946	635.177	1270.601	-1.269	738.523	1113.749	6.784	790.511	1010.045	0.754	746.100	997.921	24.389	785.429	1210.371	-593.130	660.862	1127.645	-541.019	693.696	1158.439	-625.258	836.896	1076.995	-595.370	939.925	1069.182	-532.899	907.870	1008.603	-564.445
240	1.19500	1061.902	540.987	-174.142	959.838	503.119	-179.533	656.901	621.767	-189.654	644.824	708.424	-242.573	549.429	532.765	-163.469	557.210	491.107	-229.547	882.283	479.114	-454.658	867.837	354.453	-439.108	692.529	108.280	-351.145	630.701	85.606	-298.826	822.034	40.320	-389.614	866.482	49.750	-326.141	843.315	531.605	-184.664	971.629	567.456	-142.055	863.368	606.435	-156.269	787.709	394.099	-457.232	742.780	285.717	-419.087	1050.932	768.596	-167.014	1098.790	665.271	-182.272	1083.141	620.150	-150.614	966.392	718.295	-110.080	1016.406	615.003	-140.086	916.190	710.235	-501.318	932.971	577.079	-460.577	796.548	699.597	-497.210	819.856	568.611	-455.704	928.684	968.284	-198.753	713.239	1028.261	-225.516	868.748	991.101	-460.929	689.783	1038.879	-327.540	824.268	1516.097	-335.784	876.902	1486.562	-131.735	885.585	1449.930	-530.812	975.010	1397.520	-328.624	756.043	1303.742	-46.013	608.834	1238.384	-86.204	624.959	1275.074	-4.122	723.847	1115.439	8.523	772.954	1010.068	4.956	727.603	999.627	27.478	794.197	1207.237	-592.921	670.700	1121.004	-543.661	704.218	1152.807	-627.179	849.939	1076.493	-592.484	951.898	1073.027	-527.899	923.181	1010.693	-559.035
241	1.20000	1081.819	554.076	-175.564	981.821	509.793	-180.501	671.186	608.855	-186.936	651.738	694.526	-238.952	571.267	511.548	-160.415	581.146	470.762	-227.383	863.733	474.523	-453.260	843.377	351.156	-438.185	658.625	111.642	-351.104	595.947	90.220	-298.527	785.972	40.264	-389.900	830.713	49.542	-326.595	863.797	531.604	-184.236	990.469	574.410	-142.919	879.978	607.504	-155.715	765.342	395.106	-454.159	716.297	288.167	-417.952	1057.870	780.810	-167.995	1111.246	680.524	-183.786	1098.053	634.312	-152.352	976.700	726.232	-110.319	1032.018	625.658	-140.933	906.412	704.983	-500.345	919.556	571.305	-459.432	786.211	698.700	-495.232	805.613	566.522	-455.014	928.575	967.222	-198.716	712.815	1028.103	-225.293	867.802	987.865	-461.949	688.653	1039.238	-327.822	824.284	1515.152	-336.883	873.500	1485.935	-131.163	890.297	1448.693	-530.170	974.162	1397.078	-325.973	747.636	1306.573	-45.961	599.461	1242.764	-88.517	615.037	1280.613	-6.999	709.563	1118.785	9.941	755.861	1011.793	8.670	709.682	1002.839	30.109	802.967	1205.022	-592.549	680.090	1116.191	-545.921	715.436	1148.506	-628.431	862.263	1077.788	-589.744	962.796	1078.905	-522.914	937.793	1014.855	-553.246
242	1.20500	1100.864	568.851	-177.246	1003.235	517.591	-180.462	685.573	594.710	-184.525	658.535	678.747	-236.218	594.787	489.715	-157.543	607.073	449.734	-225.292	845.224	470.560	-451.684	818.863	349.565	-438.010	624.457	115.859	-351.824	561.141	96.586	-299.116	749.749	40.099	-389.975	794.725	49.394	-327.017	883.978	531.782	-183.780	1008.028	582.119	-144.546	895.909	608.404	-155.685	742.079	395.700	-453.989	689.254	290.974	-417.440	1064.132	793.502	-169.175	1122.618	696.610	-185.140	1112.128	649.516	-153.984	986.405	734.874	-111.166	1046.891	637.365	-141.135	896.829	699.786	-498.485	905.426	566.213	-457.572	776.703	697.963	-493.608	791.332	564.948	-454.165	928.652	966.665	-198.225	712.614	1028.218	-225.242	867.700	984.930	-462.553	688.601	1039.342	-327.886	823.238	1515.440	-337.052	870.099	1485.884	-130.431	894.506	1448.721	-528.868	973.181	1397.271	-323.149	739.492	1310.333	-45.930	591.183	1248.232	-90.813	605.089	1287.007	-10.955	695.910	1123.295	10.782	739.468	1015.171	11.616	692.319	1007.138	31.940	811.561	1203.976	-592.060	689.740	1112.681	-547.626	725.989	1145.495	-629.815	874.108	1080.793	-586.935	973.066	1086.583	-517.795	951.171	1020.700	-547.319
243	1.21000	1118.485	583.888	-179.561	1023.873	526.104	-180.757	700.472	579.428	-182.150	665.788	661.161	-234.077	619.762	466.736	-153.497	635.071	428.532	-220.802	826.094	467.198	-450.201	793.418	346.611	-438.014	590.737	120.784	-353.370	526.695	104.057	-301.110	713.360	40.215	-390.249	758.698	49.241	-327.306	903.803	532.381	-183.723	1024.759	590.806	-146.148	911.142	609.637	-156.059	719.798	397.005	-453.700	662.836	293.999	-418.082	1069.434	806.890	-170.115	1132.935	713.158	-186.960	1124.803	665.069	-155.682	995.241	744.105	-112.247	1060.557	650.127	-142.646	887.734	695.107	-496.657	891.003	560.913	-455.533	767.503	697.838	-492.174	776.265	563.958	-453.402	929.027	966.869	-197.424	712.696	1028.591	-225.505	868.659	982.458	-462.579	688.701	1039.041	-328.929	822.760	1515.849	-337.110	866.392	1486.646	-129.813	898.261	1449.935	-527.170	972.256	1398.047	-320.187	731.399	1315.074	-46.169	582.881	1254.428	-93.253	595.853	1294.284	-14.001	682.604	1128.805	11.014	723.933	1019.978	13.882	675.896	1012.974	32.927	819.537	1204.082	-591.565	698.562	1110.444	-549.550	736.197	1143.556	-631.075	885.626	1085.289	-583.893	983.394	1095.078	-512.686	963.884	1028.624	-541.408
